# xmcd CD database file
#
# Track frame offsets:
#	150
#	14581
#	29136
#	38492
#	55690
#	73343
#	87032
#	102873
#	115636
#	133505
#	146773
#	161622
#	177699
#
# Disc length: 2479 seconds
#
# Revision: 0
# Processed by: cddbd v1.5.2PL0 Copyright (c) Steve Scherf et al.
# Submitted via: CDex 2.02
#
DISCID=b409ad0d
DTITLE=John Maxwell - Blues for Evangeline
DYEAR=2014
DGENRE=Blues
TTITLE0=Can't Get Stuff No More
TTITLE1=Love's a Funny Thing
TTITLE2=Honey It Must Be Love
TTITLE3=Midnight Hour Blues
TTITLE4=Blind Mary/Dry Side of Town
TTITLE5=Let the Mermaids Flirt with Me
TTITLE6=Elevator Woman
TTITLE7=Count to Two
TTITLE8=Delia (All My Friends are Gone)
TTITLE9=Still My Girl
TTITLE10=Healing Touch
TTITLE11=St. James Infirmary
TTITLE12=She Really Loves My Dog
EXTD=YEAR: 2014
EXTT0=
EXTT1=
EXTT2=
EXTT3=
EXTT4=
EXTT5=
EXTT6=
EXTT7=
EXTT8=
EXTT9=
EXTT10=
EXTT11=
EXTT12=
PLAYORDER=
